<?xml version="1.0" encoding="UTF-8" standalone="no"?>
<svg
   width="1057.9829"
   zoomAndPan="magnify"
   viewBox="0 0 793.48718 108.61328"
   height="144.8177"
   preserveAspectRatio="xMidYMid"
   version="1.0"
   id="svg37"
   xmlns="http://www.w3.org/2000/svg"
   xmlns:svg="http://www.w3.org/2000/svg">
  <defs
     id="defs4">
    <g
       id="g1" />
    <clipPath
       id="58dc541be0">
      <path
         d="M 0.316406,26.507812 H 85.144531 V 135.12109 H 0.316406 Z m 0,0"
         clip-rule="nonzero"
         id="path1" />
    </clipPath>
    <clipPath
       id="f263fb4e5a">
      <path
         d="M 87.855469,26.507812 H 200.43359 V 135.12109 H 87.855469 Z m 0,0"
         clip-rule="nonzero"
         id="path2" />
    </clipPath>
    <clipPath
       id="54b6381bf3">
      <path
         d="M 215,0.480469 H 800.19922 V 160.32031 H 215 Z m 0,0"
         clip-rule="nonzero"
         id="path3" />
    </clipPath>
    <clipPath
       id="74bd5af33e">
      <rect
         x="0"
         width="586"
         y="0"
         height="161"
         id="rect3" />
    </clipPath>
    <clipPath
       id="273e464be6">
      <rect
         x="0"
         width="801"
         y="0"
         height="161"
         id="rect4" />
    </clipPath>
  </defs>
  <g
     transform="translate(-0.429688,-26.507812)"
     id="g37">
    <g
       clip-path="url(#273e464be6)"
       id="g36">
      <g
         clip-path="url(#58dc541be0)"
         id="g4">
        <path
           fill="#00e08f"
           d="m 82.203125,94.390625 c 0,-22.492187 -18.304687,-40.730469 -40.886719,-40.730469 H 0.429688 v 40.730469 c 0,22.496095 18.304687,40.730465 40.886718,40.730465 H 82.203125 Z M 200.50391,26.507812 v 54.308594 c 0,29.992184 -24.40625,54.304684 -54.51563,54.304684 H 91.472656 V 80.816406 c 0,-29.992187 24.406254,-54.308594 54.515624,-54.308594 z m 0,0"
           fill-opacity="1"
           fill-rule="nonzero"
           id="path4" />
      </g>
      <g
         clip-path="url(#f263fb4e5a)"
         id="g5">
        <path
           fill="#0077ff"
           d="M 82.15625,94.617188 C 82.15625,72.046875 63.863281,53.75 41.292969,53.75 H 0.429688 v 40.867188 c 0,22.566402 18.296874,40.863282 40.863281,40.863282 H 82.15625 Z M 200.39453,26.507812 v 54.488282 c 0,30.089846 -24.39453,54.484376 -54.48828,54.484376 H 91.421875 V 80.996094 c 0,-30.09375 24.394535,-54.488282 54.484375,-54.488282 z m 0,0"
           fill-opacity="1"
           fill-rule="nonzero"
           id="path5" />
      </g>
      <g
         clip-path="url(#54b6381bf3)"
         id="g35">
        <g
           transform="translate(215)"
           id="g34">
          <g
             clip-path="url(#74bd5af33e)"
             id="g33">
            <g
               fill="#000000"
               fill-opacity="1"
               id="g8">
              <g
                 transform="translate(0.249775,126.95497)"
                 id="g7">
                <g
                   id="g6">
                  <path
                     d="M 6.375,0 V -0.78125 L 8.71875,-8.328125 V -85.53125 L 6.375,-93.078125 v -0.78125 h 22.140625 v 0.78125 l -2.34375,7.546875 v 72.515625 l 32.9375,-0.390625 10.40625,-3.390625 h 0.78125 L 69.515625,0 Z m 0,0"
                     id="path6" />
                </g>
              </g>
            </g>
            <g
               fill="#000000"
               fill-opacity="1"
               id="g11">
              <g
                 transform="translate(68.725202,126.95497)"
                 id="g10">
                <g
                   id="g9">
                  <path
                     d="m 3.640625,-33.84375 c 0,-6.601562 1.363281,-12.550781 4.09375,-17.84375 2.738281,-5.289062 6.582031,-9.476562 11.53125,-12.5625 4.945313,-3.082031 10.71875,-4.625 17.3125,-4.625 6.507813,0 11.910156,1.109375 16.203125,3.328125 4.300781,2.210937 7.644531,5.136719 10.03125,8.78125 2.382812,3.648437 3.988281,7.640625 4.8125,11.984375 0.832031,4.335938 1.070312,8.585938 0.71875,12.75 H 20.046875 c 0.519531,6.429688 2.492187,11.375 5.921875,14.84375 3.425781,3.46875 7.789062,5.203125 13.09375,5.203125 8.320312,0 13.703125,-3.898437 16.140625,-11.703125 l 13.140625,3.515625 C 66.695312,-13.753906 63.25,-8.570312 58,-4.625 52.75,-0.675781 45.914062,1.296875 37.5,1.296875 30.726562,1.296875 24.800781,-0.238281 19.71875,-3.3125 14.644531,-6.394531 10.695312,-10.601562 7.875,-15.9375 5.050781,-21.28125 3.640625,-27.25 3.640625,-33.84375 Z M 20.4375,-42.046875 h 30.859375 c -0.355469,-4.519531 -1.8125,-8.363281 -4.375,-11.53125 -2.554687,-3.164063 -6,-4.75 -10.34375,-4.75 -4.511719,0 -8.117187,1.480469 -10.8125,4.4375 -2.6875,2.949219 -4.464844,6.898437 -5.328125,11.84375 z m 0,0"
                     id="path8" />
                </g>
              </g>
            </g>
            <g
               fill="#000000"
               fill-opacity="1"
               id="g14">
              <g
                 transform="translate(140.97607,126.95497)"
                 id="g13">
                <g
                   id="g12">
                  <path
                     d="m 26.421875,1.296875 c -4.511719,0 -8.480469,-0.824219 -11.90625,-2.46875 C 11.085938,-2.816406 8.394531,-5.09375 6.4375,-8 c -1.949219,-2.914062 -2.921875,-6.191406 -2.921875,-9.828125 0,-5.90625 2.082031,-10.632813 6.25,-14.1875 4.164063,-3.5625 10.066406,-5.953125 17.703125,-7.171875 l 18.484375,-3 v -3.765625 C 45.953125,-49.859375 44.800781,-52.875 42.5,-55 c -2.292969,-2.125 -5.21875,-3.1875 -8.78125,-3.1875 -4.085938,0 -7.339844,1.152344 -9.765625,3.453125 -2.429687,2.292969 -3.859375,5.523437 -4.296875,9.6875 L 4.296875,-48.5625 c 0.863281,-3.644531 2.53125,-7.003906 5,-10.078125 2.476563,-3.082031 5.78125,-5.554687 9.90625,-7.421875 4.125,-1.875 9.003906,-2.8125 14.640625,-2.8125 8.59375,0 15.492188,2.242188 20.703125,6.71875 5.207031,4.46875 7.8125,10.695312 7.8125,18.671875 V -9.25 L 64.1875,-0.78125 V 0 H 45.953125 v -8.859375 c -2.25,3.480469 -5.117187,6.042969 -8.59375,7.6875 -3.46875,1.644531 -7.117187,2.46875 -10.9375,2.46875 z M 20.3125,-19 c 0,2.429688 0.910156,4.511719 2.734375,6.25 1.820313,1.730469 4.25,2.59375 7.28125,2.59375 4.082031,0 7.425781,-1.210938 10.03125,-3.640625 2.601563,-2.425781 4.46875,-5.289063 5.59375,-8.59375 v -10.03125 L 31.375,-29.8125 C 24,-28.25 20.3125,-24.644531 20.3125,-19 Z m 0,0"
                     id="path11" />
                </g>
              </g>
            </g>
            <g
               fill="#000000"
               fill-opacity="1"
               id="g17">
              <g
                 transform="translate(209.06106,126.95497)"
                 id="g16">
                <g
                   id="g15">
                  <path
                     d="M 11.328125,0 V -0.78125 L 13.15625,-8.078125 V -55.59375 H 1.828125 V -66.921875 L 13.15625,-67.5625 v -6.25 c 0,-5.039062 1.164062,-9.226562 3.5,-12.5625 2.34375,-3.34375 5.398438,-5.859375 9.171875,-7.546875 3.78125,-1.695313 7.800781,-2.546875 12.0625,-2.546875 1.46875,0 3.484375,0.28125 6.046875,0.84375 2.5625,0.5625 5.097656,1.605469 7.609375,3.125 2.519531,1.523438 4.34375,3.757812 5.46875,6.703125 l -10.53125,7.03125 h -0.78125 c -0.617187,-1.90625 -1.640625,-3.332031 -3.078125,-4.28125 -1.429688,-0.957031 -3.007812,-1.4375 -4.734375,-1.4375 -2.085937,0 -3.996094,0.871094 -5.734375,2.609375 -1.742188,1.730469 -2.609375,4.371094 -2.609375,7.921875 v 6.125 l 15.890625,-0.125 0.125,12.359375 H 29.546875 V -8.078125 L 32.15625,-0.78125 V 0 Z m 0,0"
                     id="path14" />
                </g>
              </g>
            </g>
            <g
               fill="#000000"
               fill-opacity="1"
               id="g20">
              <g
                 transform="translate(252.93212,126.95497)"
                 id="g19">
                <g
                   id="g18">
                  <path
                     d="m 37.359375,1.296875 c -6.59375,0 -12.433594,-1.492187 -17.515625,-4.484375 -5.074219,-3 -9.042969,-7.144531 -11.90625,-12.4375 -2.867188,-5.289062 -4.296875,-11.363281 -4.296875,-18.21875 0,-6.945312 1.472656,-13.046875 4.421875,-18.296875 2.957031,-5.25 7.015625,-9.347656 12.171875,-12.296875 5.164063,-2.957031 11.003906,-4.4375 17.515625,-4.4375 7.726562,0 14.238281,1.890625 19.53125,5.671875 5.289062,3.773437 8.632812,8.742187 10.03125,14.90625 l -13.671875,4.6875 -0.78125,-0.140625 c -0.78125,-3.988281 -2.476563,-7.175781 -5.078125,-9.5625 -2.605469,-2.382812 -5.859375,-3.578125 -9.765625,-3.578125 -5.210937,0 -9.445313,2.023437 -12.703125,6.0625 -3.25,4.03125 -4.875,9.386719 -4.875,16.0625 0,4.867187 0.84375,8.96875 2.53125,12.3125 1.695312,3.34375 3.929688,5.886719 6.703125,7.625 2.78125,1.730469 5.820313,2.59375 9.125,2.59375 4.082031,0 7.507813,-1.148437 10.28125,-3.453125 2.78125,-2.300781 4.734375,-5.617188 5.859375,-9.953125 L 68.21875,-23.5625 C 66.914062,-15.75 63.507812,-9.648438 58,-5.265625 c -5.511719,4.375 -12.390625,6.5625 -20.640625,6.5625 z m 0,0"
                     id="path17" />
                </g>
              </g>
            </g>
            <g
               fill="#000000"
               fill-opacity="1"
               id="g23">
              <g
                 transform="translate(323.62079,126.95497)"
                 id="g22">
                <g
                   id="g21">
                  <path
                     d="m 23.953125,-7.9375 1.828125,7.15625 V 0 H 5.734375 v -0.78125 l 1.8125,-7.15625 v -76.15625 l -1.8125,-8.984375 v -0.78125 l 18.21875,-1.5625 z m 0,0"
                     id="path20" />
                </g>
              </g>
            </g>
            <g
               fill="#000000"
               fill-opacity="1"
               id="g26">
              <g
                 transform="translate(354.99457,126.95497)"
                 id="g25">
                <g
                   id="g24">
                  <path
                     d="M 37.890625,1.296875 C 31.285156,1.296875 25.378906,-0.21875 20.171875,-3.25 14.972656,-6.289062 10.894531,-10.476562 7.9375,-15.8125 4.988281,-21.15625 3.515625,-27.164062 3.515625,-33.84375 c 0,-6.6875 1.472656,-12.675781 4.421875,-17.96875 2.957031,-5.289062 7.035156,-9.457031 12.234375,-12.5 5.207031,-3.039062 11.113281,-4.5625 17.71875,-4.5625 6.675781,0 12.597656,1.523438 17.765625,4.5625 5.164062,3.042969 9.242188,7.210938 12.234375,12.5 3,5.292969 4.5,11.28125 4.5,17.96875 0,6.679688 -1.5,12.6875 -4.5,18.03125 -2.992187,5.335938 -7.070313,9.523438 -12.234375,12.5625 -5.167969,3.03125 -11.089844,4.546875 -17.765625,4.546875 z m 0,-11.96875 c 3.46875,0 6.523437,-0.992187 9.171875,-2.984375 2.644531,-2 4.726562,-4.734375 6.25,-8.203125 1.519531,-3.476563 2.28125,-7.472656 2.28125,-11.984375 0,-4.519531 -0.761719,-8.515625 -2.28125,-11.984375 -1.523438,-3.46875 -3.605469,-6.175781 -6.25,-8.125 -2.648438,-1.957031 -5.703125,-2.9375 -9.171875,-2.9375 -3.480469,0 -6.542969,1 -9.1875,3 -2.648437,1.992187 -4.710937,4.699219 -6.1875,8.125 -1.46875,3.429687 -2.203125,7.402344 -2.203125,11.921875 0,6.773438 1.625,12.328125 4.875,16.671875 3.257812,4.335937 7.492188,6.5 12.703125,6.5 z m 0,0"
                     id="path23" />
                </g>
              </g>
            </g>
            <g
               fill="#000000"
               fill-opacity="1"
               id="g29">
              <g
                 transform="translate(430.89051,126.95497)"
                 id="g28">
                <g
                   id="g27">
                  <path
                     d="m 31.5,1.296875 c -4.59375,0 -8.761719,-0.953125 -12.5,-2.859375 -3.730469,-1.90625 -6.65625,-4.660156 -8.78125,-8.265625 -2.125,-3.601563 -3.1875,-7.832031 -3.1875,-12.6875 v -35.28125 l -1.828125,-7.6875 v -0.78125 l 18.234375,-1.5625 v 42.1875 c 0,5.03125 1.234375,8.546875 3.703125,10.546875 2.476563,1.992188 5.453125,2.984375 8.921875,2.984375 3.644531,0 6.851562,-1.382813 9.625,-4.15625 2.78125,-2.78125 4.601562,-6.34375 5.46875,-10.6875 v -30.84375 l -1.8125,-7.6875 v -0.78125 l 18.21875,-1.5625 v 59.75 l 1.828125,7.296875 V 0 H 51.15625 v -9.890625 c -1.992188,3.210937 -4.679688,5.875 -8.0625,8 -3.386719,2.125 -7.25,3.1875 -11.59375,3.1875 z m 0,0"
                     id="path26" />
                </g>
              </g>
            </g>
            <g
               fill="#000000"
               fill-opacity="1"
               id="g32">
              <g
                 transform="translate(505.74499,126.95497)"
                 id="g31">
                <g
                   id="g30">
                  <path
                     d="M 34.765625,1.296875 C 28.773438,1.296875 23.4375,-0.195312 18.75,-3.1875 c -4.6875,-3 -8.382812,-7.144531 -11.078125,-12.4375 -2.6875,-5.289062 -4.03125,-11.363281 -4.03125,-18.21875 0,-6.863281 1.390625,-12.921875 4.171875,-18.171875 2.78125,-5.25 6.617188,-9.367187 11.515625,-12.359375 4.90625,-3 10.484375,-4.5 16.734375,-4.5 3.90625,0 7.550781,0.808594 10.9375,2.421875 3.382812,1.605469 6.03125,3.621094 7.9375,6.046875 v -23.6875 l -1.828125,-8.984375 v -0.78125 l 18.234375,-1.5625 v 87.34375 l 1.828125,7.296875 V 0 H 54.9375 v -9.375 c -1.648438,2.949219 -4.3125,5.464844 -8,7.546875 -3.6875,2.082031 -7.746094,3.125 -12.171875,3.125 z m 3.375,-13.015625 c 4.425781,0 8.179687,-1.492188 11.265625,-4.484375 3.082031,-3 4.925781,-6.882813 5.53125,-11.65625 V -41.40625 c -0.605469,-4.769531 -2.40625,-8.539062 -5.40625,-11.3125 -2.992188,-2.78125 -6.65625,-4.171875 -11,-4.171875 -5.292969,0 -9.632812,2.152344 -13.015625,6.453125 -3.386719,4.292969 -5.078125,9.777344 -5.078125,16.453125 0,6.605469 1.644531,11.96875 4.9375,16.09375 3.300781,4.117187 7.554688,6.171875 12.765625,6.171875 z m 0,0"
                     id="path29" />
                </g>
              </g>
            </g>
          </g>
        </g>
      </g>
    </g>
  </g>
</svg>
