<svg id="Calque_1" data-name="Calque 1" xmlns="http://www.w3.org/2000/svg" viewBox="0 0 549.72 86.85"><defs><style>.cls-1,.cls-2{fill:#000e9c;}.cls-1{fill-rule:evenodd;}</style></defs><path class="cls-1" d="M138.47,49.6a46.21,46.21,0,0,1-4.31,51.31H109.43L117,87.46H107l11.87-20.94H129l9.49-16.92ZM89.63,100.91H64.42a45.68,45.68,0,0,1-4.37-51.43L76.4,77.89l18-31.4H121l-31.33,54.4h0l0,0Z" transform="translate(-54.11 -36.24)"/><path class="cls-2" d="M159.32,75.65c0-14.51,7.23-21.49,19.11-21.49s19.1,7,19.1,21.49-7.23,21.43-19.1,21.43S159.32,90,159.32,75.65Zm4.29,0c0,11.94,5.45,17.63,14.82,17.63s14.81-5.69,14.81-17.63S187.79,58,178.43,58,163.61,63.65,163.61,75.65Z" transform="translate(-54.11 -36.24)"/><path class="cls-2" d="M228.76,55.87a2.08,2.08,0,0,1,2-1.34,2.06,2.06,0,0,1,2.08,2.08,2.78,2.78,0,0,1-.19.92L218.29,95.3a2.07,2.07,0,0,1-3.92,0L200,57.53a3.1,3.1,0,0,1-.18-.92,2.06,2.06,0,0,1,2.08-2.08,2.11,2.11,0,0,1,2,1.34l12.43,32.94Z" transform="translate(-54.11 -36.24)"/><path class="cls-2" d="M241.49,77V94.63a2.08,2.08,0,0,1-4.16,0v-38a2.08,2.08,0,0,1,4.16,0V73.2H262.8V56.61a2.08,2.08,0,1,1,4.16,0v38a2.08,2.08,0,1,1-4.16,0V77Z" transform="translate(-54.11 -36.24)"/><path class="cls-2" d="M286.62,67.57a11.55,11.55,0,0,1,9.43,4.22,1.83,1.83,0,0,1,.43,1.17,1.74,1.74,0,0,1-1.78,1.77,1.83,1.83,0,0,1-1.47-.73,7.83,7.83,0,0,0-6.61-2.88c-5.63,0-8.63,3.61-8.63,11.14s3,11.21,8.63,11.21a11.11,11.11,0,0,0,7.1-2.64,1.87,1.87,0,0,1,1.17-.42,1.77,1.77,0,0,1,1.77,1.77,1.9,1.9,0,0,1-.79,1.53A14,14,0,0,1,286.62,97C278.72,97,274,92.3,274,82.26S278.72,67.57,286.62,67.57Z" transform="translate(-54.11 -36.24)"/><path class="cls-2" d="M306.15,54.59v35c0,2.45.8,3.49,2.45,3.49a1.84,1.84,0,1,1,0,3.67c-4.1,0-6.37-2.45-6.37-7.16v-35a2,2,0,0,1,2-2A2,2,0,0,1,306.15,54.59Z" transform="translate(-54.11 -36.24)"/><path class="cls-2" d="M339.52,82.26c0,10-4.89,14.76-12.85,14.76s-12.86-4.72-12.86-14.76,5-14.69,12.86-14.69S339.52,72.22,339.52,82.26Zm-4,0c0-7.71-3.24-11.14-8.87-11.14s-8.88,3.43-8.88,11.14,3.24,11.21,8.88,11.21S335.54,90.1,335.54,82.26Z" transform="translate(-54.11 -36.24)"/><path class="cls-2" d="M349,69.89v16c0,4,1.29,7.41,7.47,7.41s7.47-3.42,7.47-7.41v-16a2,2,0,0,1,2-2,1.91,1.91,0,0,1,1.9,2v16c0,5.82-1.9,11.15-11.39,11.15S345,91.69,345,85.87v-16a1.92,1.92,0,0,1,1.95-2A2,2,0,0,1,349,69.89Z" transform="translate(-54.11 -36.24)"/><path class="cls-2" d="M394,71.55v-17a2,2,0,1,1,3.92,0V85c0,8.08-5,12.06-12,12.06-7.9,0-12.56-4.72-12.56-14.76s4.41-14.69,12.31-14.69A10.38,10.38,0,0,1,394,71.55Zm0,5s-2.33-5.39-8.08-5.39c-5.58,0-8.64,3.61-8.64,11.14s3,11.21,8.64,11.21c4.71,0,8.08-2.7,8.08-8.51Z" transform="translate(-54.11 -36.24)"/><path class="cls-2" d="M454.19,67.34a16.76,16.76,0,0,1-5.86-1.08A15.27,15.27,0,0,1,443.1,63L447,58.37a14.49,14.49,0,0,0,3.56,2.25,9.3,9.3,0,0,0,3.84.88,5.25,5.25,0,0,0,3.16-.78,2.53,2.53,0,0,0,1-2.12,2.32,2.32,0,0,0-.3-1.2,2.93,2.93,0,0,0-.87-.89,8.82,8.82,0,0,0-1.38-.74L454.24,55l-3.91-1.66a11.17,11.17,0,0,1-2.23-1.19,9.69,9.69,0,0,1-1.94-1.73,7.71,7.71,0,0,1-1.35-2.3,8.09,8.09,0,0,1-.51-3,8,8,0,0,1,.78-3.48,8.67,8.67,0,0,1,2.21-2.85,10.62,10.62,0,0,1,3.38-1.91,12.84,12.84,0,0,1,4.3-.69,14,14,0,0,1,5.18,1,13.19,13.19,0,0,1,4.48,3l-3.45,4.28a12.76,12.76,0,0,0-2.94-1.77,8.22,8.22,0,0,0-3.27-.63,4.79,4.79,0,0,0-2.78.72,2.29,2.29,0,0,0-1,2A2,2,0,0,0,451.5,46a3.34,3.34,0,0,0,1,.88,9.64,9.64,0,0,0,1.44.73l1.8.76,3.86,1.57a10.5,10.5,0,0,1,4.35,3,7.79,7.79,0,0,1,1.59,5.11,8.53,8.53,0,0,1-3,6.51,11.1,11.1,0,0,1-3.57,2A14,14,0,0,1,454.19,67.34Z" transform="translate(-54.11 -36.24)"/><path class="cls-2" d="M477.56,67.34A9.25,9.25,0,0,1,474,66.7a6.3,6.3,0,0,1-2.44-1.8,7.26,7.26,0,0,1-1.38-2.78,14,14,0,0,1-.44-3.61V49.26h-3.13v-5l3.5-.28.78-6.07h5.61V44h5.48v5.29h-5.48v9.15a4,4,0,0,0,.81,2.79,2.8,2.8,0,0,0,2.14.85,5,5,0,0,0,1.13-.14,7.84,7.84,0,0,0,1-.32l1.06,4.92c-.61.19-1.34.37-2.16.55A13.14,13.14,0,0,1,477.56,67.34Z" transform="translate(-54.11 -36.24)"/><path class="cls-2" d="M491.22,67.34a7.35,7.35,0,0,1-2.83-.53,6.1,6.1,0,0,1-2.14-1.47,6.82,6.82,0,0,1-1.35-2.19,7.26,7.26,0,0,1-.49-2.71,6.4,6.4,0,0,1,3-5.61q3-2,9.8-2.72a3.82,3.82,0,0,0-.9-2.41,3.46,3.46,0,0,0-2.69-.9,8.3,8.3,0,0,0-2.92.55,22,22,0,0,0-3.11,1.52l-2.43-4.46a23.67,23.67,0,0,1,4.62-2.16,15.76,15.76,0,0,1,5.13-.83c2.94,0,5.19.83,6.74,2.51S504,50.2,504,53.72V66.79h-5.52L498,64.44h-.18a14.38,14.38,0,0,1-3.09,2.09A7.74,7.74,0,0,1,491.22,67.34Zm2.3-5.25a3.69,3.69,0,0,0,2-.5,9.84,9.84,0,0,0,1.75-1.43v-4a12.38,12.38,0,0,0-5,1.47,2.79,2.79,0,0,0-1.38,2.3,1.93,1.93,0,0,0,.71,1.64A3.16,3.16,0,0,0,493.52,62.09Z" transform="translate(-54.11 -36.24)"/><path class="cls-2" d="M509.25,66.79V44h5.52l.46,4h.19a8.86,8.86,0,0,1,3-3.45,6.53,6.53,0,0,1,3.49-1.1,9.7,9.7,0,0,1,1.59.11,5.34,5.34,0,0,1,1.13.35l-1.11,5.84a11.52,11.52,0,0,0-1.19-.27,7,7,0,0,0-1.29-.1,4.94,4.94,0,0,0-2.69.92A6.7,6.7,0,0,0,516,53.54V66.79Z" transform="translate(-54.11 -36.24)"/><path class="cls-2" d="M537.5,67.34a9.25,9.25,0,0,1-3.61-.64,6.3,6.3,0,0,1-2.44-1.8,7.26,7.26,0,0,1-1.38-2.78,14,14,0,0,1-.44-3.61V49.26H526.5v-5L530,44l.78-6.07h5.61V44h5.48v5.29h-5.48v9.15a4,4,0,0,0,.81,2.79,2.79,2.79,0,0,0,2.14.85,4.84,4.84,0,0,0,1.12-.14,7.55,7.55,0,0,0,1-.32l1.06,4.92c-.62.19-1.34.37-2.17.55A13,13,0,0,1,537.5,67.34Z" transform="translate(-54.11 -36.24)"/><path class="cls-2" d="M553.18,67.34q-3.72,0-5.4-2.44a11.77,11.77,0,0,1-1.68-6.76V44h6.76V57.26a6,6,0,0,0,.69,3.41,2.53,2.53,0,0,0,2.16.92,3.77,3.77,0,0,0,2.17-.6,8.66,8.66,0,0,0,1.88-1.93V44h6.76V66.79H561l-.5-3.18h-.14a12.26,12.26,0,0,1-3.15,2.74A7.79,7.79,0,0,1,553.18,67.34Z" transform="translate(-54.11 -36.24)"/><path class="cls-2" d="M572.46,75.25V44H578l.46,2.25h.18a13,13,0,0,1,3-2,8.05,8.05,0,0,1,3.48-.8,8.21,8.21,0,0,1,3.72.83,7.91,7.91,0,0,1,2.81,2.34,11,11,0,0,1,1.77,3.66A17.2,17.2,0,0,1,594,55a15.81,15.81,0,0,1-.8,5.22,12.07,12.07,0,0,1-2.17,3.87A9.4,9.4,0,0,1,588,66.51a8.18,8.18,0,0,1-3.56.83,7,7,0,0,1-2.86-.62A9.39,9.39,0,0,1,579,65l.23,3.63v6.67Zm10.39-13.43a3.69,3.69,0,0,0,3-1.59q1.24-1.59,1.25-5.13,0-6.16-4-6.16A5.47,5.47,0,0,0,579.22,51v9.34a5.64,5.64,0,0,0,1.84,1.15A5.51,5.51,0,0,0,582.85,61.82Z" transform="translate(-54.11 -36.24)"/><path class="cls-2" d="M445.63,112.79V82.61h8.61a22,22,0,0,1,4.62.46,9.84,9.84,0,0,1,3.56,1.5,7,7,0,0,1,2.3,2.73,9.43,9.43,0,0,1,.83,4.19,10,10,0,0,1-.8,4.14,7.84,7.84,0,0,1-2.28,2.9,10.06,10.06,0,0,1-3.52,1.72,16.41,16.41,0,0,1-4.53.58h-5v12Zm3.82-15.09H454c2.64,0,4.59-.5,5.87-1.5a5.6,5.6,0,0,0,1.9-4.71c0-2.18-.66-3.69-2-4.53a11.3,11.3,0,0,0-6-1.27h-4.33Z" transform="translate(-54.11 -36.24)"/><path class="cls-2" d="M471.3,112.79V90.43h3.13l.32,4h.14a10.38,10.38,0,0,1,2.78-3.36,5.76,5.76,0,0,1,3.57-1.24,5.86,5.86,0,0,1,2.39.46l-.74,3.31c-.36-.12-.7-.21-1-.28a6.09,6.09,0,0,0-1.15-.09,5,5,0,0,0-3,1.15,9.16,9.16,0,0,0-2.7,4v14.35Z" transform="translate(-54.11 -36.24)"/><path class="cls-2" d="M495.5,113.34a10.14,10.14,0,0,1-3.94-.78,9.61,9.61,0,0,1-3.28-2.28A11,11,0,0,1,486,106.6a13.51,13.51,0,0,1-.85-4.94,13.65,13.65,0,0,1,.85-5,11.28,11.28,0,0,1,2.28-3.7,9.53,9.53,0,0,1,3.28-2.3,10.32,10.32,0,0,1,7.87,0,9.57,9.57,0,0,1,3.29,2.3,11.45,11.45,0,0,1,2.28,3.7,13.86,13.86,0,0,1,.85,5,13.72,13.72,0,0,1-.85,4.94,11.14,11.14,0,0,1-2.28,3.68,9.65,9.65,0,0,1-3.29,2.28A10.06,10.06,0,0,1,495.5,113.34Zm0-3.13a5.65,5.65,0,0,0,2.62-.62,6,6,0,0,0,2.05-1.75,8.54,8.54,0,0,0,1.31-2.69,12.6,12.6,0,0,0,.46-3.49,12.82,12.82,0,0,0-.46-3.52,8.82,8.82,0,0,0-1.31-2.74,5.86,5.86,0,0,0-2.05-1.77,5.85,5.85,0,0,0-5.24,0,5.86,5.86,0,0,0-2.05,1.77,8.4,8.4,0,0,0-1.31,2.74,12.45,12.45,0,0,0-.46,3.52,12.24,12.24,0,0,0,.46,3.49,8.13,8.13,0,0,0,1.31,2.69,6,6,0,0,0,2.05,1.75A5.62,5.62,0,0,0,495.5,110.21Z" transform="translate(-54.11 -36.24)"/><path class="cls-2" d="M519.28,123.09a16.86,16.86,0,0,1-3.77-.39,9.11,9.11,0,0,1-2.92-1.17,5.69,5.69,0,0,1-1.89-1.89,4.9,4.9,0,0,1-.67-2.57,4.71,4.71,0,0,1,.88-2.72A9.23,9.23,0,0,1,513.3,112v-.18a4.35,4.35,0,0,1-1.4-1.4,4,4,0,0,1-.58-2.23,4.1,4.1,0,0,1,.78-2.49,7.19,7.19,0,0,1,1.66-1.65v-.19a9,9,0,0,1-2-2.46,6.93,6.93,0,0,1-.9-3.56,7.83,7.83,0,0,1,.67-3.31A7.31,7.31,0,0,1,513.35,92,8,8,0,0,1,516,90.43a9.42,9.42,0,0,1,3.24-.55A8.52,8.52,0,0,1,521,90a11.17,11.17,0,0,1,1.45.39h7.78v2.9h-4.6a6.38,6.38,0,0,1,1.31,2,6.46,6.46,0,0,1,.53,2.62,7.88,7.88,0,0,1-.65,3.24,7.13,7.13,0,0,1-1.74,2.44,8.14,8.14,0,0,1-2.6,1.54,9.16,9.16,0,0,1-3.2.55,7.8,7.8,0,0,1-1.7-.2,8.14,8.14,0,0,1-1.66-.58,5.12,5.12,0,0,0-1,1.13,2.68,2.68,0,0,0-.41,1.54,2.19,2.19,0,0,0,.82,1.75,5.13,5.13,0,0,0,3.13.69h4.32a11,11,0,0,1,5.87,1.26,4.5,4.5,0,0,1,2,4.07,6,6,0,0,1-.79,3,7.48,7.48,0,0,1-2.25,2.46,11.58,11.58,0,0,1-3.57,1.68A16.64,16.64,0,0,1,519.28,123.09Zm.55-2.62a10.22,10.22,0,0,0,2.92-.39,8.08,8.08,0,0,0,2.23-1,4.8,4.8,0,0,0,1.43-1.45,3.21,3.21,0,0,0,.51-1.71,2.22,2.22,0,0,0-1.16-2.16,7.42,7.42,0,0,0-3.35-.59h-3.87c-.43,0-.89,0-1.4-.07a7.82,7.82,0,0,1-1.5-.3,6,6,0,0,0-1.74,1.84,3.81,3.81,0,0,0-.55,1.93,3.22,3.22,0,0,0,1.72,2.85A9.05,9.05,0,0,0,519.83,120.47Zm-.55-17.3a4.65,4.65,0,0,0,1.82-.36,4.76,4.76,0,0,0,2.55-2.74,6.52,6.52,0,0,0,.37-2.23A5.13,5.13,0,0,0,522.64,94a4.83,4.83,0,0,0-6.72,0,5.13,5.13,0,0,0-1.38,3.84,6.29,6.29,0,0,0,.37,2.23,4.68,4.68,0,0,0,2.55,2.74A4.65,4.65,0,0,0,519.28,103.17Z" transform="translate(-54.11 -36.24)"/><path class="cls-2" d="M534.92,112.79V90.43h3.13l.32,4h.14a10.26,10.26,0,0,1,2.78-3.36,5.75,5.75,0,0,1,3.56-1.24,5.94,5.94,0,0,1,2.4.46l-.74,3.31c-.37-.12-.71-.21-1-.28a6.16,6.16,0,0,0-1.15-.09,5.07,5.07,0,0,0-3,1.15,9.16,9.16,0,0,0-2.69,4v14.35Z" transform="translate(-54.11 -36.24)"/><path class="cls-2" d="M554.93,113.34a6.74,6.74,0,0,1-4.67-1.66A5.94,5.94,0,0,1,548.4,107a6.19,6.19,0,0,1,3.26-5.63q3.27-2,10.44-2.74a10.09,10.09,0,0,0-.2-2.07,5.23,5.23,0,0,0-.72-1.8,3.65,3.65,0,0,0-1.4-1.26A4.82,4.82,0,0,0,557.5,93a9.06,9.06,0,0,0-3.63.73,18.17,18.17,0,0,0-3,1.66l-1.47-2.62a24.08,24.08,0,0,1,3.82-2,12.72,12.72,0,0,1,5-.94c2.73,0,4.71.83,5.93,2.51a11,11,0,0,1,1.84,6.69v13.71h-3.13l-.32-2.67h-.14a18.74,18.74,0,0,1-3.45,2.28A8.61,8.61,0,0,1,554.93,113.34Zm1.1-3a6.32,6.32,0,0,0,3-.76,14.93,14.93,0,0,0,3-2.23V101.1a38.25,38.25,0,0,0-4.71.88,12.54,12.54,0,0,0-3.08,1.19,4.73,4.73,0,0,0-1.71,1.59,3.81,3.81,0,0,0-.52,2,3.18,3.18,0,0,0,1.15,2.76A4.66,4.66,0,0,0,556,110.3Z" transform="translate(-54.11 -36.24)"/><path class="cls-2" d="M573,112.79V90.43h3.13l.32,3.22h.14A15.72,15.72,0,0,1,579.74,91a6.93,6.93,0,0,1,3.75-1.08,6.37,6.37,0,0,1,4,1.13,6.57,6.57,0,0,1,2.14,3.15,18.62,18.62,0,0,1,3.52-3.11A6.83,6.83,0,0,1,597,89.88a6,6,0,0,1,5.13,2.21q1.68,2.2,1.68,6.53v14.17h-3.78V99.12a7.92,7.92,0,0,0-1-4.57,3.58,3.58,0,0,0-3.13-1.4c-1.68,0-3.55,1.14-5.61,3.45v16.19h-3.77V99.12a8,8,0,0,0-1-4.57,3.65,3.65,0,0,0-3.18-1.4c-1.68,0-3.55,1.14-5.61,3.45v16.19Z" transform="translate(-54.11 -36.24)"/></svg>