<svg xmlns="http://www.w3.org/2000/svg" xmlns:xlink="http://www.w3.org/1999/xlink" width="136" height="36" viewBox="0 0 136 36">
  <defs>
    <clipPath id="clip-heata-logo-ol">
      <rect width="136" height="36"/>
    </clipPath>
  </defs>
  <g id="heata-logo-ol" clip-path="url(#clip-heata-logo-ol)">
    <g id="heata-logo-oneline-with-strapline_rgb">
      <path id="strap" d="M-4612.707,1553.736V1544.9h.964v.807h.025a2.386,2.386,0,0,1,1.952-.965,2.815,2.815,0,0,1,2.712,3,2.759,2.759,0,0,1-2.722,2.977,2.389,2.389,0,0,1-1.929-.965h-.039v3.98Zm.916-6.062a1.951,1.951,0,0,0,1.858,2.157,1.949,1.949,0,0,0,1.893-2.148,1.887,1.887,0,0,0-1.906-2.047A1.921,1.921,0,0,0-4611.791,1547.674Zm17.351,3.064a2.739,2.739,0,0,1-2.771-2.917,2.764,2.764,0,0,1,2.748-3.063,2.775,2.775,0,0,1,2.688,3.2l-4.449-.016a1.839,1.839,0,0,0,.525,1.342,1.842,1.842,0,0,0,1.333.552,1.939,1.939,0,0,0,1.723-1.17l.819.469a2.863,2.863,0,0,1-2.573,1.608Zm-1.726-3.62h3.387a1.725,1.725,0,0,0-1.661-1.482A1.794,1.794,0,0,0-4596.166,1547.117Zm-9.636,1.048V1544.9h.964v3.159c0,.965.109,1.772,1.286,1.772s1.285-.82,1.285-1.772V1544.9h.965v3.266c0,1.507-.567,2.571-2.25,2.571S-4605.8,1549.69-4605.8,1548.166Zm-45.528,0V1544.9h.965v3.159c0,.965.109,1.772,1.285,1.772s1.286-.82,1.286-1.772V1544.9h.964v3.266c0,1.507-.564,2.571-2.25,2.571S-4651.331,1549.69-4651.331,1548.166Zm8.447,2.556a2.792,2.792,0,0,1-2.711-2.977,2.8,2.8,0,0,1,2.722-3,2.446,2.446,0,0,1,1.928.965h.027v-5.086h.964v9.964h-.964l.012-.8h-.026a2.41,2.41,0,0,1-1.91.94Zm-1.725-3.048a1.951,1.951,0,0,0,1.857,2.157,1.949,1.949,0,0,0,1.894-2.148,1.886,1.886,0,0,0-1.907-2.047A1.922,1.922,0,0,0-4644.608,1547.674Zm16.45,2.176a2.974,2.974,0,0,1-.871-2.1,2.977,2.977,0,0,1,2.977-2.977,2.977,2.977,0,0,1,2.976,2.977,2.976,2.976,0,0,1-2.976,2.976A2.976,2.976,0,0,1-4628.158,1549.85Zm.656-3.588a2,2,0,0,0-.562,1.47v.013a2.015,2.015,0,0,0,2.067,1.934,2.014,2.014,0,0,0,1.96-2.043,2.015,2.015,0,0,0-2.016-1.988h0A2.009,2.009,0,0,0-4627.5,1546.262Zm-28.022,4.459a2.977,2.977,0,0,1-2.976-2.976,2.979,2.979,0,0,1,2.979-2.983,2.979,2.979,0,0,1,2.981,2.981,2.98,2.98,0,0,1-2.981,2.979Zm-1.449-4.459a2.009,2.009,0,0,0-.563,1.47v.013a2.016,2.016,0,0,0,2.068,1.934,2.015,2.015,0,0,0,1.961-2.043,2.015,2.015,0,0,0-2.017-1.988h0A2.007,2.007,0,0,0-4656.974,1546.262Zm23.068,3.606a2.939,2.939,0,0,1-.868-2.14,2.991,2.991,0,0,1,.89-2.128,2.988,2.988,0,0,1,2.139-.861,3.058,3.058,0,0,1,1.748.566v1.282h-.026a2.181,2.181,0,0,0-1.758-.965,2.025,2.025,0,0,0-1.443.627,2.026,2.026,0,0,0-.56,1.47,1.988,1.988,0,0,0,1.955,2.1,2.2,2.2,0,0,0,1.841-.965h.026v1.286a3.079,3.079,0,0,1-1.8.578h-.081A2.937,2.937,0,0,1-4633.906,1549.869Zm-32.227,0a2.933,2.933,0,0,1-.867-2.139,2.992,2.992,0,0,1,.888-2.127,2.991,2.991,0,0,1,2.138-.862,3.057,3.057,0,0,1,1.748.566v1.282h-.026a2.18,2.18,0,0,0-1.758-.965,2.028,2.028,0,0,0-1.443.627,2.022,2.022,0,0,0-.559,1.47,1.987,1.987,0,0,0,1.954,2.1,2.207,2.207,0,0,0,1.845-.965h.023v1.286a3.082,3.082,0,0,1-1.8.578h-.078A2.934,2.934,0,0,1-4666.133,1549.868Zm44.33.705V1544.9h.964v.614h.026a1.608,1.608,0,0,1,1.362-.772,1.735,1.735,0,0,1,1.566.942,1.89,1.89,0,0,1,1.7-.942c1.446,0,1.81,1.183,1.81,2.375v3.449h-.965v-3.291c0-.737-.048-1.64-1.038-1.64-1.109,0-1.228,1.074-1.228,1.929v3h-.965v-3.214c0-.7-.086-1.71-1.012-1.71-1.135,0-1.257,1.144-1.257,2v2.931Zm22.229-.006v-4.776h-.6v-.89h.591v-2.029h.965v2.038h1.016v.89h-1.012l0,4.767Zm-61.152,0v-9.945h.964v9.945Zm44.971-11.307a2.6,2.6,0,0,1-2.787-2.6h.964a1.678,1.678,0,0,0,1.811,1.712c1.495,0,1.819-1.1,1.819-2.375v-.675h-.023a2.5,2.5,0,0,1-1.951.938,2.775,2.775,0,0,1-2.7-2.963,2.833,2.833,0,0,1,2.738-3.015,2.365,2.365,0,0,1,1.929.964h.022v-.806h.964l-.013,5.387a3.6,3.6,0,0,1-.579,2.436,2.745,2.745,0,0,1-2.12,1Zm-1.893-6.05a1.95,1.95,0,0,0,1.854,2.156,1.95,1.95,0,0,0,1.894-2.147,1.884,1.884,0,0,0-1.9-2.047A1.921,1.921,0,0,0-4617.647,1533.21Zm19.076,3.063a2.741,2.741,0,0,1-2.773-2.915,2.764,2.764,0,0,1,2.748-3.063,2.755,2.755,0,0,1,2.69,3.2l-4.448-.016a1.838,1.838,0,0,0,.524,1.344,1.836,1.836,0,0,0,1.333.549,1.939,1.939,0,0,0,1.724-1.17l.819.47a2.861,2.861,0,0,1-2.571,1.607Zm-1.736-3.619h3.389a1.727,1.727,0,0,0-1.666-1.482A1.791,1.791,0,0,0-4600.307,1532.654Zm-40.41,3.619a2.739,2.739,0,0,1-2.771-2.915,2.765,2.765,0,0,1,2.749-3.063,2.773,2.773,0,0,1,2.687,3.2l-4.436-.016a1.832,1.832,0,0,0,.524,1.344,1.834,1.834,0,0,0,1.333.549,1.936,1.936,0,0,0,1.723-1.17l.807.47a2.861,2.861,0,0,1-2.571,1.607Zm-1.736-3.619h3.387a1.725,1.725,0,0,0-1.665-1.482A1.794,1.794,0,0,0-4642.452,1532.654Zm12.035,3.6a2.037,2.037,0,0,1-1.99-1.421l.858-.36c.241.531.518.9,1.157.9a.857.857,0,0,0,.646-.234.859.859,0,0,0,.27-.634c0-1.266-2.572-.832-2.572-2.617a1.608,1.608,0,0,1,.5-1.165,1.607,1.607,0,0,1,1.188-.442,1.72,1.72,0,0,1,1.508,1.048l-.794.415a.9.9,0,0,0-.772-.579.685.685,0,0,0-.7.627c0,.518.643.711,1.315.987a1.713,1.713,0,0,1,1.311,1.629,1.848,1.848,0,0,1-.571,1.331,1.851,1.851,0,0,1-1.279.512Zm-4.79,0a2.034,2.034,0,0,1-1.99-1.421l.855-.36c.241.531.518.9,1.157.9a.863.863,0,0,0,.648-.234.86.86,0,0,0,.268-.634c0-1.266-2.556-.832-2.556-2.617a1.608,1.608,0,0,1,.5-1.165,1.606,1.606,0,0,1,1.188-.442,1.717,1.717,0,0,1,1.509,1.048l-.808.415a.9.9,0,0,0-.771-.579.687.687,0,0,0-.7.627c0,.518.643.711,1.314.987a1.715,1.715,0,0,1,1.314,1.629,1.853,1.853,0,0,1-.573,1.329,1.85,1.85,0,0,1-1.278.513Zm42.895,0a2.793,2.793,0,0,1-2.713-2.976,2.8,2.8,0,0,1,2.722-3,2.458,2.458,0,0,1,1.929.964h.025v-.806h.964l.013,5.667h-.964v-.785h-.026a2.379,2.379,0,0,1-1.893.939Zm-1.726-3.047a1.95,1.95,0,0,0,1.858,2.156,1.948,1.948,0,0,0,1.893-2.147,1.886,1.886,0,0,0-1.906-2.047A1.921,1.921,0,0,0-4594.038,1533.21Zm-63.866,3.047a2.793,2.793,0,0,1-2.712-2.976,2.8,2.8,0,0,1,2.726-3,2.458,2.458,0,0,1,1.929.964h.022v-.806h.964l.014,5.667h-.965v-.785h-.022a2.386,2.386,0,0,1-1.9.939Zm-1.732-3.047h.009a1.95,1.95,0,0,0,1.855,2.156,1.95,1.95,0,0,0,1.893-2.147,1.884,1.884,0,0,0-1.906-2.047A1.928,1.928,0,0,0-4659.636,1533.21Zm88.435,3.047a2.974,2.974,0,0,1-2.976-2.976,2.978,2.978,0,0,1,2.979-2.982,2.978,2.978,0,0,1,2.979,2.98,2.979,2.979,0,0,1-2.978,2.979Zm-1.45-4.459a2.006,2.006,0,0,0-.562,1.47v.013a2.015,2.015,0,0,0,2.067,1.935,2.018,2.018,0,0,0,1.962-2.043,2.016,2.016,0,0,0-2.017-1.988h0A2.012,2.012,0,0,0-4572.65,1531.8Zm-34.506,4.315v-9.955h.971v4.94l.026.026a1.9,1.9,0,0,1,1.607-.846c1.568,0,1.929,1.135,1.929,2.458v3.366h-.965v-3.2c0-.916-.07-1.736-1.192-1.736-1.327,0-1.41,1.227-1.41,2.25v2.69Zm-17.28,0v-5.676h.964l.01.688h.026a1.9,1.9,0,0,1,1.607-.846c1.565,0,1.928,1.135,1.928,2.458v3.366h-.964v-3.2c0-.916-.074-1.736-1.2-1.736-1.325,0-1.411,1.227-1.411,2.25v2.69Zm-24.853,0v-5.677h.965l.006.689h.026a1.9,1.9,0,0,1,1.607-.846c1.569,0,1.929,1.135,1.929,2.458v3.366h-.965v-3.2c0-.916-.07-1.736-1.192-1.736-1.324,0-1.41,1.227-1.41,2.25v2.69Zm-17.151,0v-9.955h.971v4.94l.024.026a1.9,1.9,0,0,1,1.608-.846c1.568,0,1.928,1.135,1.928,2.458v3.366h-.964v-3.2c0-.916-.07-1.736-1.192-1.736-1.328,0-1.412,1.227-1.412,2.25v2.69Zm99.492,0v-5.674h.964v.615h.026a1.607,1.607,0,0,1,1.36-.772,1.741,1.741,0,0,1,1.568.942,1.891,1.891,0,0,1,1.7-.942c1.445,0,1.806,1.183,1.806,2.375v3.449h-.964v-3.292c0-.735-.049-1.639-1.036-1.639-1.109,0-1.231,1.074-1.231,1.928v3h-.964v-3.215c0-.7-.084-1.71-1.013-1.71-1.131,0-1.253,1.144-1.253,2v2.932Zm-10.527-.006v-5.667h.964v.614h.026a1.437,1.437,0,0,1,1.254-.772,1.7,1.7,0,0,1,.868.267l-.457.877a.962.962,0,0,0-.579-.251c-1.063,0-1.113,1.363-1.113,2.1v2.836Zm-3.214,0v-4.776h-.518v-.89h.529v-2.25a2.9,2.9,0,0,1,.254-1.472,1.645,1.645,0,0,1,1.459-.711,2.375,2.375,0,0,1,.689.12v.964a2.054,2.054,0,0,0-.643-.132c-.785,0-.785.554-.785,1.557v1.928h1.437v.89h-1.437l-.022,4.774Zm-6.882,0v-4.776h-.592v-.89h.592v-2.029h.964v2.038h1.013v.89h-1.013v4.767Zm-39.6,0v-5.667h.965v5.667Zm-26.138,0v-5.667h.964v.614h.022a1.458,1.458,0,0,1,1.254-.772,1.7,1.7,0,0,1,.868.267l-.457.877a.936.936,0,0,0-.579-.251c-1.061,0-1.109,1.363-1.109,2.1v2.836Zm25.942-7.8a.688.688,0,0,1,.688-.687.688.688,0,0,1,.689.688.688.688,0,0,1-.689.689A.688.688,0,0,1-4627.368,1528.3Z" transform="translate(4844.778 -1520.05)" fill="#f04552"/>
      <rect id="divider" width="0.643" height="36" transform="translate(157.179)" fill="#f04552"/>
      <path id="heata" d="M-4597.43,1540.29c0-5.612,4.049-9.148,8.624-9.148a5.536,5.536,0,0,1,4.992,2.4h.064v-1.823h5.155v17.165h-5.143v-1.854h-.064c-.863,1.671-3,2.442-5,2.442C-4594.245,1549.47-4597.43,1545.206-4597.43,1540.29Zm5.117.049a4.281,4.281,0,0,0,4.265,4.329h.013a4.228,4.228,0,0,0,4.286-4.39,4.193,4.193,0,0,0-4.327-4.356A4.237,4.237,0,0,0-4592.312,1540.339Zm-36.951-.049c0-5.612,4.05-9.148,8.624-9.148a5.567,5.567,0,0,1,5.007,2.4h.061v-1.823h5.143v17.165h-5.143v-1.854h-.061c-.868,1.671-3,2.442-5.007,2.442C-4626.079,1549.47-4629.264,1545.206-4629.264,1540.29Zm5.129.049a4.282,4.282,0,0,0,4.266,4.329,4.239,4.239,0,0,0,4.3-4.39,4.192,4.192,0,0,0-4.325-4.356A4.238,4.238,0,0,0-4624.135,1540.339Zm-15.778,9.1a9.1,9.1,0,0,1-9.088-9.087,9.131,9.131,0,0,1,9-9.21,9.022,9.022,0,0,1,9.055,9.367,7.065,7.065,0,0,1-.122,1.36h-12.857a3.846,3.846,0,0,0,4.018,3.243,3.651,3.651,0,0,0,3.121-1.607h5.245a10.041,10.041,0,0,1-3.49,4.39,8.35,8.35,0,0,1-4.837,1.544Zm-3.945-11.032h7.789a3.8,3.8,0,0,0-3.9-2.937A3.783,3.783,0,0,0-4643.857,1538.407Zm38.083,10.463v-13.259h-2.534v-3.892h2.534V1526h5.129v5.719h2.473v3.892h-2.473v13.259Zm-61.227,0V1526h5.143v7.306h.048a4.8,4.8,0,0,1,4.42-2.163,6.333,6.333,0,0,1,4.693,1.874c1.452,1.7,1.607,3.214,1.607,6.274v9.566h-5.143v-9.321c0-.833,0-3.584-2.751-3.584-2.874,0-2.874,2.565-2.874,3.4v9.518Z" transform="translate(4714.25 -1519.571)" fill="#f04552"/>
      <path id="icon" d="M-4642.571,1552.679V1526h4.821v26.679Zm-16.714,0V1526h4.821v26.679Zm8.357-6.429v-13.821h4.821v13.821Zm16.072-1.607v-10.607h4.821v10.607Zm-32.144,0v-10.607h4.822v10.607Z" transform="translate(4667 -1521.5)" fill="#f04552"/>
    </g>
  </g>
</svg>
